<svg width="41" height="40" viewBox="0 0 41 40" fill="none" xmlns="http://www.w3.org/2000/svg">
<path fill-rule="evenodd" clip-rule="evenodd" d="M21.754 16.8114L25.5177 14.6159V19.0069L21.754 16.8114ZM25.5177 26.2207L20.4994 29.148L15.4811 26.2207V21.0979L20.4994 24.0252L25.5177 21.0979V26.2207ZM15.4811 14.6159L19.2448 16.8114L15.4811 19.0069V14.6159ZM21.1267 17.8569L24.8904 20.0524L21.1267 22.2479V17.8569ZM19.8721 22.2479L16.1084 20.0524L19.8721 17.8569V22.2479ZM24.8904 13.5705L20.4994 16.0796L16.1084 13.5705L20.4994 10.9568L24.8904 13.5705ZM14.2266 13.1523V26.848L20.4994 30.4026L26.7723 26.848V13.1523L20.4994 9.59766L14.2266 13.1523Z" fill="white"/>
<rect x="1.12728" y="0.627285" width="38.7454" height="38.7454" rx="19.3727" stroke="#424242" stroke-width="1.25457"/>
</svg>
