<svg width="20" height="33" viewBox="0 0 20 33" fill="none" xmlns="http://www.w3.org/2000/svg">
<path d="M15.8805 23.9966C15.8959 23.9876 15.9052 23.9711 15.9052 23.9534L15.8851 17.1087L17.8818 16.0589L17.9642 25.1284L10.0913 29.6033L10.0852 27.4072L15.8805 23.9966Z" fill="white" stroke="#2B2B2B" stroke-width="0.1" stroke-miterlimit="10" stroke-linecap="round" stroke-linejoin="round"/>
<path d="M17.9791 15.9776C17.9789 15.9592 17.9687 15.9424 17.9524 15.9338L11.8424 12.7014L14.1202 11.4117L19.9173 15.0419L19.9491 26.0024L18.0623 25.1268L17.9791 15.9776Z" fill="white" stroke="#2B2B2B" stroke-width="0.1" stroke-miterlimit="10" stroke-linecap="round" stroke-linejoin="round"/>
<path d="M10.0131 2.45104L10.0035 0.0862005L19.8932 5.71654L19.9002 7.97072L10.0131 2.45104Z" fill="white" stroke="#2B2B2B" stroke-width="0.1" stroke-miterlimit="10" stroke-linecap="round" stroke-linejoin="round"/>
<path d="M1.84402 6.96403C1.82827 6.97284 1.81849 6.98945 1.81843 7.00749L1.78731 15.9986L0.0836643 17.2571L0.0500845 5.83066L9.90092 0.086827L9.91054 2.45121L1.84402 6.96403Z" fill="white" stroke="#2B2B2B" stroke-width="0.1" stroke-miterlimit="10" stroke-linecap="round" stroke-linejoin="round"/>
<path d="M10.0625 29.735L18.013 25.216L19.8903 26.0872L9.98772 31.9442L0.157926 26.3675L7.99828 21.7696C8.01379 21.7605 8.02322 21.7437 8.02298 21.7258C8.02273 21.7078 8.01284 21.6913 7.99708 21.6826L5.91759 20.5388L5.91758 20.5388L0.123759 17.3513L1.83802 16.085L11.7774 21.7635L5.88386 25.0879L5.8836 25.0881L3.88329 26.2009C3.86746 26.2097 3.85764 26.2263 3.85759 26.2444C3.85755 26.2626 3.8673 26.2793 3.88309 26.2881L10.0133 29.7351C10.0286 29.7437 10.0473 29.7437 10.0625 29.735Z" fill="white" stroke="#2B2B2B" stroke-width="0.1" stroke-miterlimit="10" stroke-linecap="round" stroke-linejoin="round"/>
<path d="M9.95945 2.5397L19.8447 8.0583L14.0965 11.3115L14.0965 11.3115L11.7133 12.6608C11.6974 12.6698 11.6877 12.6868 11.6879 12.705C11.6882 12.7233 11.6984 12.74 11.7145 12.7485L17.8215 15.9793L15.8335 17.0246L7.98662 12.5944L15.8313 7.99657C15.8467 7.98755 15.8562 7.971 15.8561 7.95315C15.856 7.9353 15.8463 7.91886 15.8308 7.91001L13.9413 6.83163L9.99063 4.57667C9.97525 4.56789 9.95638 4.5679 9.94101 4.5767L4.0805 7.93114L1.97907 7.00433L9.95945 2.5397Z" fill="white" stroke="#2B2B2B" stroke-width="0.1" stroke-miterlimit="10" stroke-linecap="round" stroke-linejoin="round"/>
<path d="M9.98402 27.4101L9.99012 29.6052L4.01259 26.244L5.91097 25.1879L9.98402 27.4101Z" fill="white" stroke="#2B2B2B" stroke-width="0.1" stroke-miterlimit="10" stroke-linecap="round" stroke-linejoin="round"/>
<path d="M5.89798 20.6393L7.87594 21.7273L0.111772 26.2805L0.104774 23.9145L5.89798 20.6393Z" fill="white" stroke="#2B2B2B" stroke-width="0.1" stroke-miterlimit="10" stroke-linecap="round" stroke-linejoin="round"/>
<path d="M13.9166 6.93242L15.7066 7.95396L7.93761 12.5074L7.96028 10.2597L13.9166 6.93242Z" fill="white" stroke="#2B2B2B" stroke-width="0.1" stroke-miterlimit="10" stroke-linecap="round" stroke-linejoin="round"/>
<path d="M4.05356 15.0565C4.05361 15.0746 4.06351 15.0913 4.07942 15.1001L11.8229 19.3703L11.8298 21.6722L1.88604 15.9912L1.91687 7.08049L4.03347 8.014L4.05356 15.0565Z" fill="white" stroke="#2B2B2B" stroke-width="0.1" stroke-miterlimit="10" stroke-linecap="round" stroke-linejoin="round"/>
</svg>
