<svg width="35" height="34" viewBox="0 0 35 34" fill="none" xmlns="http://www.w3.org/2000/svg">
<path d="M10.6036 17.0596C10.6036 15.3776 10.6036 13.6955 10.6036 12.0135C10.6036 10.9835 10.889 10.4072 11.5823 10.2043C12.3053 9.99248 13.0518 10.0672 13.7304 10.8916C16.4445 14.189 19.1993 17.4531 21.9435 20.7253C22.048 20.8503 22.1221 21.1023 22.3353 21.0159C22.5366 20.9342 22.4255 20.6986 22.4259 20.537C22.4336 18.1757 22.4325 15.8143 22.4273 13.453C22.4273 13.3039 22.5165 13.0939 22.3232 13.0199C22.1717 12.9617 22.0712 13.1386 21.9659 13.2287C21.142 13.9337 20.3251 14.6466 19.5034 15.3541C19.3501 15.486 19.1975 15.7 18.9657 15.5073C18.7313 15.3124 18.9125 15.1343 19.0287 14.9617C19.9319 13.6208 20.8346 12.2798 21.7373 10.9385C22.216 10.227 22.8125 9.96903 23.5054 10.1757C24.1683 10.3732 24.5387 10.9502 24.5399 11.8053C24.5424 13.7461 24.5406 15.6872 24.5406 17.6279C24.5406 19.1806 24.5417 20.7334 24.5402 22.2861C24.5395 23.1416 24.2167 23.6912 23.585 23.9253C22.8433 24.2001 22.0612 23.988 21.5327 23.3563C18.7602 20.0442 15.99 16.7299 13.2187 13.4167C13.1461 13.3299 13.0811 13.2331 12.9953 13.1613C12.8493 13.0393 12.7268 13.0327 12.7154 13.2712C12.7099 13.3841 12.7132 13.4977 12.7132 13.6109C12.7132 15.94 12.711 18.2691 12.7172 20.5978C12.7176 20.7649 12.616 21.0038 12.799 21.0877C13.0078 21.1833 13.1292 20.9378 13.2675 20.8202C14.0561 20.149 14.8342 19.4653 15.6206 18.7912C15.7817 18.6531 15.9379 18.4065 16.1914 18.6369C16.4218 18.8465 16.2145 19.0242 16.1059 19.1865C15.1881 20.5564 14.2663 21.9238 13.3397 23.2874C12.9153 23.9121 12.3233 24.1407 11.6659 23.9539C11.0152 23.7692 10.6102 23.2149 10.6066 22.4448C10.5974 20.6495 10.6036 18.8542 10.6036 17.0589V17.0596Z" fill="white"/>
</svg>
