<svg width="41" height="40" viewBox="0 0 41 40" fill="none" xmlns="http://www.w3.org/2000/svg">
<rect x="3.84375" y="3.3457" width="33.4552" height="33.4552" rx="16.7276" fill="#2C2C2E"/>
<path d="M25.7341 16.8225C25.3672 16.624 24.8955 16.624 24.4763 16.8225L21.5413 18.4606L19.5497 19.5029L16.6671 21.1409C16.3003 21.3395 15.8286 21.3395 15.4093 21.1409L13.1557 19.8504C12.7888 19.6518 12.5267 19.2547 12.5267 18.808V16.3262C12.5267 15.9291 12.7364 15.532 13.1557 15.2838L15.4093 14.0429C15.7762 13.8443 16.2479 13.8443 16.6671 14.0429L18.9208 15.3334C19.2877 15.532 19.5497 15.9291 19.5497 16.3758V18.0138L21.5413 16.9218V15.2342C21.5413 14.8371 21.3317 14.44 20.9124 14.1918L16.7196 11.8589C16.3527 11.6603 15.881 11.6603 15.4617 11.8589L11.1641 14.2414C10.7448 14.44 10.5352 14.8371 10.5352 15.2342V19.9C10.5352 20.2971 10.7448 20.6942 11.1641 20.9424L15.4093 23.2753C15.7762 23.4739 16.2479 23.4739 16.6671 23.2753L19.5497 21.6869L21.5413 20.5949L24.4239 19.0066C24.7907 18.808 25.2624 18.808 25.6817 19.0066L27.9353 20.2475C28.3022 20.446 28.5643 20.8431 28.5643 21.2899V23.7717C28.5643 24.1688 28.3546 24.5659 27.9353 24.8141L25.7341 26.055C25.3672 26.2535 24.8955 26.2535 24.4763 26.055L22.2226 24.8141C21.8558 24.6155 21.5937 24.2184 21.5937 23.7717V22.1833L19.6021 23.2753V24.9133C19.6021 25.3104 19.8118 25.7075 20.231 25.9557L24.4763 28.2886C24.8431 28.4872 25.3148 28.4872 25.7341 28.2886L29.9793 25.9557C30.3462 25.7572 30.6083 25.3601 30.6083 24.9133V20.1978C30.6083 19.8008 30.3986 19.4037 29.9793 19.1555L25.7341 16.8225Z" fill="white"/>
<rect x="1.12728" y="0.627285" width="38.7454" height="38.7454" rx="19.3727" stroke="#424242" stroke-width="1.25457"/>
</svg>
