<svg width="41" height="40" viewBox="0 0 41 40" fill="none" xmlns="http://www.w3.org/2000/svg">
<mask id="path-2-inside-1_1_255350" fill="white">
<path d="M20.4258 28.4197L20.4219 27.0108L23.971 24.9221L23.9587 20.7296L25.2369 20.0576L25.2878 25.6562L20.4258 28.4197Z"/>
</mask>
<path d="M20.4258 28.4197L20.4219 27.0108L23.971 24.9221L23.9587 20.7296L25.2369 20.0576L25.2878 25.6562L20.4258 28.4197Z" fill="white"/>
<path d="M20.4258 28.4197L20.4075 28.4198C20.4075 28.4263 20.411 28.4323 20.4166 28.4355C20.4222 28.4388 20.4292 28.4388 20.4348 28.4356L20.4258 28.4197ZM20.4219 27.0108L20.4126 26.995C20.407 26.9983 20.4036 27.0043 20.4036 27.0108L20.4219 27.0108ZM23.971 24.9221L23.9803 24.9378C23.9859 24.9345 23.9893 24.9285 23.9893 24.922L23.971 24.9221ZM23.9587 20.7296L23.9502 20.7135C23.9441 20.7166 23.9404 20.7229 23.9404 20.7297L23.9587 20.7296ZM25.2369 20.0576L25.2552 20.0575C25.2551 20.0511 25.2517 20.0452 25.2463 20.0419C25.2408 20.0386 25.234 20.0385 25.2284 20.0414L25.2369 20.0576ZM25.2878 25.6562L25.2968 25.6721C25.3026 25.6688 25.3062 25.6627 25.3061 25.656L25.2878 25.6562ZM20.4441 28.4197L20.4402 27.0107L20.4036 27.0108L20.4075 28.4198L20.4441 28.4197ZM20.4312 27.0266L23.9803 24.9378L23.9617 24.9063L20.4126 26.995L20.4312 27.0266ZM23.9893 24.922L23.977 20.7296L23.9404 20.7297L23.9527 24.9221L23.9893 24.922ZM23.9672 20.7458L25.2454 20.0738L25.2284 20.0414L23.9502 20.7135L23.9672 20.7458ZM25.2186 20.0578L25.2695 25.6564L25.3061 25.656L25.2552 20.0575L25.2186 20.0578ZM25.2788 25.6403L20.4168 28.4038L20.4348 28.4356L25.2968 25.6721L25.2788 25.6403Z" fill="#6259D4" mask="url(#path-2-inside-1_1_255350)"/>
<path d="M25.2453 20.0593L25.2554 20.0592L25.2404 20.0513L21.48 18.0618L22.914 17.2499L26.4699 19.4767L26.4895 26.2058L25.2962 25.6521L25.2453 20.0593Z" fill="white" stroke="#6259D4" stroke-width="0.0182944" stroke-miterlimit="10" stroke-linecap="round" stroke-linejoin="round"/>
<path d="M20.3864 11.8227L20.3803 10.3312L26.454 13.789L26.4584 15.2125L20.3864 11.8227Z" fill="white" stroke="#6259D4" stroke-width="0.0182944" stroke-miterlimit="10" stroke-linecap="round" stroke-linejoin="round"/>
<path d="M15.4357 14.5808L15.4311 14.5726L15.431 14.5888L15.412 20.0824L14.3306 20.8812L14.3099 13.8588L20.3597 10.3313L20.3658 11.8227L15.4357 14.5808Z" fill="white" stroke="#6259D4" stroke-width="0.0182944" stroke-miterlimit="10" stroke-linecap="round" stroke-linejoin="round"/>
<path d="M20.427 28.4287L25.2849 25.6675L26.4764 26.2204L20.3921 29.8191L14.3548 26.394L19.1679 23.5714C19.1708 23.5697 19.1725 23.5667 19.1724 23.5634C19.1724 23.5601 19.1706 23.5571 19.1677 23.5555L17.8996 22.858L14.3372 20.8981L15.4206 20.0978L21.5265 23.5862L17.8997 25.632L17.8996 25.6321L16.6797 26.3107C16.6768 26.3123 16.675 26.3154 16.675 26.3187C16.675 26.322 16.6768 26.3251 16.6797 26.3267L20.418 28.4287L20.4137 28.4362L20.427 28.4287Z" fill="white" stroke="#6259D4" stroke-width="0.0182944" stroke-miterlimit="10" stroke-linecap="round" stroke-linejoin="round"/>
<path d="M21.4564 18.0716L25.2163 20.0607L23.9579 20.7224L19.1303 17.9969L23.9462 15.1743C23.949 15.1726 23.9507 15.1696 23.9507 15.1663C23.9507 15.1631 23.9489 15.1601 23.9461 15.1584L22.7938 14.5008L20.3846 13.1257L20.389 13.118L20.3755 13.1257L16.7924 15.1767L15.4619 14.5899L20.3762 11.8406L26.4479 15.2302L22.9096 17.2327L22.9141 17.2407L22.9096 17.2327L21.4562 18.0556C21.4533 18.0572 21.4515 18.0603 21.4516 18.0637C21.4516 18.067 21.4535 18.0701 21.4564 18.0716Z" fill="white" stroke="#6259D4" stroke-width="0.0182944" stroke-miterlimit="10" stroke-linecap="round" stroke-linejoin="round"/>
<path d="M20.4127 27.0169L20.4166 28.4047L16.7062 26.3184L17.9075 25.6501L20.4127 27.0169Z" fill="white" stroke="#6259D4" stroke-width="0.0182944" stroke-miterlimit="10" stroke-linecap="round" stroke-linejoin="round"/>
<path d="M17.8952 22.8767L19.1447 23.564L14.3456 26.3784L14.3412 24.886L17.8952 22.8767Z" fill="white" stroke="#6259D4" stroke-width="0.0182944" stroke-miterlimit="10" stroke-linecap="round" stroke-linejoin="round"/>
<path d="M22.7905 14.5193L23.9246 15.1665L19.1226 17.981L19.1369 16.5602L22.7905 14.5193Z" fill="white" stroke="#6259D4" stroke-width="0.0182944" stroke-miterlimit="10" stroke-linecap="round" stroke-linejoin="round"/>
<path d="M16.7917 19.4964L16.782 19.4965L16.7964 19.5044L21.5294 22.1145L21.5339 23.5677L15.4271 20.0789L15.4461 14.5999L16.7794 15.188L16.7917 19.4964Z" fill="white" stroke="#6259D4" stroke-width="0.0182944" stroke-miterlimit="10" stroke-linecap="round" stroke-linejoin="round"/>
<rect x="1.12728" y="0.627285" width="38.7454" height="38.7454" rx="19.3727" stroke="#424242" stroke-width="1.25457"/>
</svg>
