<svg width="101" height="33" viewBox="0 0 101 33" fill="none" xmlns="http://www.w3.org/2000/svg">
<path d="M16.3805 23.9985C16.3959 23.9895 16.4052 23.9731 16.4052 23.9553L16.3851 17.1107L18.3818 16.0609L18.4642 25.1304L10.5913 29.6053L10.5852 27.4092L16.3805 23.9985Z" fill="white" stroke="white" stroke-width="0.1" stroke-miterlimit="10" stroke-linecap="round" stroke-linejoin="round"/>
<path d="M18.4791 15.9795C18.4789 15.9611 18.4687 15.9444 18.4524 15.9358L12.3424 12.7033L14.6202 11.4137L20.4173 15.0439L20.4491 26.0043L18.5623 25.1287L18.4791 15.9795Z" fill="white" stroke="white" stroke-width="0.1" stroke-miterlimit="10" stroke-linecap="round" stroke-linejoin="round"/>
<path d="M10.5131 2.453L10.5035 0.0881536L20.3932 5.71849L20.4002 7.97267L10.5131 2.453Z" fill="white" stroke="white" stroke-width="0.1" stroke-miterlimit="10" stroke-linecap="round" stroke-linejoin="round"/>
<path d="M2.34402 6.96598C2.32827 6.97479 2.31849 6.9914 2.31843 7.00945L2.28731 16.0005L0.583664 17.259L0.550084 5.83262L10.4009 0.0887801L10.4105 2.45316L2.34402 6.96598Z" fill="white" stroke="white" stroke-width="0.1" stroke-miterlimit="10" stroke-linecap="round" stroke-linejoin="round"/>
<path d="M10.5625 29.737L18.513 25.218L20.3903 26.0891L10.4877 31.9462L0.657926 26.3695L8.49828 21.7715C8.51379 21.7624 8.52322 21.7457 8.52298 21.7277C8.52273 21.7097 8.51284 21.6933 8.49708 21.6846L6.41759 20.5407L6.41758 20.5407L0.623759 17.3532L2.33802 16.0869L12.2774 21.7654L6.38386 25.0899L6.3836 25.09L4.38329 26.2028C4.36746 26.2116 4.35764 26.2283 4.35759 26.2464C4.35755 26.2645 4.3673 26.2812 4.38309 26.2901L10.5133 29.7371C10.5286 29.7457 10.5473 29.7457 10.5625 29.737Z" fill="white" stroke="white" stroke-width="0.1" stroke-miterlimit="10" stroke-linecap="round" stroke-linejoin="round"/>
<path d="M10.4594 2.54165L20.3447 8.06025L14.5965 11.3134L14.5965 11.3134L12.2133 12.6628C12.1974 12.6718 12.1877 12.6887 12.1879 12.707C12.1882 12.7253 12.1984 12.7419 12.2145 12.7505L18.3215 15.9813L16.3335 17.0265L8.48662 12.5964L16.3313 7.99853C16.3467 7.9895 16.3562 7.97295 16.3561 7.9551C16.356 7.93725 16.3463 7.92081 16.3308 7.91197L14.4413 6.83358L10.4906 4.57862C10.4753 4.56984 10.4564 4.56985 10.441 4.57865L4.5805 7.9331L2.47907 7.00628L10.4594 2.54165Z" fill="white" stroke="white" stroke-width="0.1" stroke-miterlimit="10" stroke-linecap="round" stroke-linejoin="round"/>
<path d="M10.484 27.412L10.4901 29.6071L4.51259 26.246L6.41097 25.1899L10.484 27.412Z" fill="white" stroke="white" stroke-width="0.1" stroke-miterlimit="10" stroke-linecap="round" stroke-linejoin="round"/>
<path d="M6.39798 20.6412L8.37594 21.7292L0.611772 26.2825L0.604774 23.9164L6.39798 20.6412Z" fill="white" stroke="white" stroke-width="0.1" stroke-miterlimit="10" stroke-linecap="round" stroke-linejoin="round"/>
<path d="M14.4166 6.93437L16.2066 7.95591L8.43761 12.5093L8.46028 10.2616L14.4166 6.93437Z" fill="white" stroke="white" stroke-width="0.1" stroke-miterlimit="10" stroke-linecap="round" stroke-linejoin="round"/>
<path d="M4.55356 15.0584C4.55361 15.0766 4.56351 15.0933 4.57942 15.102L12.3229 19.3723L12.3298 21.6741L2.38604 15.9931L2.41687 7.08244L4.53347 8.01595L4.55356 15.0584Z" fill="white" stroke="white" stroke-width="0.1" stroke-miterlimit="10" stroke-linecap="round" stroke-linejoin="round"/>
<path d="M35.436 25.2909C34.076 25.2909 32.916 25.0349 31.956 24.5229C30.996 23.9949 30.18 23.2749 29.508 22.3629L30.996 21.1149C31.588 21.8989 32.244 22.4989 32.964 22.9149C33.684 23.3149 34.532 23.5149 35.508 23.5149C36.708 23.5149 37.62 23.2269 38.244 22.6509C38.884 22.0749 39.204 21.3069 39.204 20.3469C39.204 19.5469 38.964 18.9309 38.484 18.4989C38.004 18.0669 37.212 17.7229 36.108 17.4669L34.74 17.1549C33.204 16.8029 32.028 16.2749 31.212 15.5709C30.412 14.8509 30.012 13.8429 30.012 12.5469C30.012 11.8109 30.148 11.1549 30.42 10.5789C30.692 10.0029 31.068 9.52293 31.548 9.13893C32.044 8.75493 32.628 8.46693 33.3 8.27493C33.988 8.06693 34.74 7.96293 35.556 7.96293C36.82 7.96293 37.9 8.19493 38.796 8.65893C39.708 9.12293 40.476 9.80293 41.1 10.6989L39.588 11.8029C39.124 11.1629 38.564 10.6589 37.908 10.2909C37.252 9.92293 36.436 9.73893 35.46 9.73893C34.388 9.73893 33.54 9.97093 32.916 10.4349C32.308 10.8829 32.004 11.5629 32.004 12.4749C32.004 13.2749 32.26 13.8829 32.772 14.2989C33.3 14.6989 34.092 15.0189 35.148 15.2589L36.516 15.5709C38.164 15.9389 39.356 16.4989 40.092 17.2509C40.828 18.0029 41.196 19.0029 41.196 20.2509C41.196 21.0189 41.06 21.7149 40.788 22.3389C40.532 22.9629 40.156 23.4909 39.66 23.9229C39.164 24.3549 38.556 24.6909 37.836 24.9309C37.132 25.1709 36.332 25.2909 35.436 25.2909ZM47.2693 25.0029C46.5973 25.0029 46.0853 24.8189 45.7333 24.4509C45.3973 24.0669 45.2293 23.5709 45.2293 22.9629V14.2989H43.1893V12.6189H44.3413C44.7573 12.6189 45.0373 12.5389 45.1813 12.3789C45.3413 12.2029 45.4213 11.9069 45.4213 11.4909V9.18693H47.1493V12.6189H49.8613V14.2989H47.1493V23.3229H49.6693V25.0029H47.2693ZM61.9954 25.0029C61.2754 25.0029 60.7554 24.8109 60.4354 24.4269C60.1314 24.0429 59.9394 23.5629 59.8594 22.9869H59.7394C59.4674 23.7549 59.0194 24.3309 58.3954 24.7149C57.7714 25.0989 57.0274 25.2909 56.1634 25.2909C54.8514 25.2909 53.8274 24.9549 53.0914 24.2829C52.3714 23.6109 52.0114 22.6989 52.0114 21.5469C52.0114 20.3789 52.4354 19.4829 53.2834 18.8589C54.1474 18.2349 55.4834 17.9229 57.2914 17.9229H59.7394V16.6989C59.7394 15.8189 59.4994 15.1469 59.0194 14.6829C58.5394 14.2189 57.8034 13.9869 56.8114 13.9869C56.0594 13.9869 55.4274 14.1549 54.9154 14.4909C54.4194 14.8269 54.0034 15.2749 53.6674 15.8349L52.5154 14.7549C52.8514 14.0829 53.3874 13.5149 54.1234 13.0509C54.8594 12.5709 55.7874 12.3309 56.9074 12.3309C58.4114 12.3309 59.5794 12.6989 60.4114 13.4349C61.2434 14.1709 61.6594 15.1949 61.6594 16.5069V23.3229H63.0754V25.0029H61.9954ZM56.4754 23.6589C56.9554 23.6589 57.3954 23.6029 57.7954 23.4909C58.1954 23.3789 58.5394 23.2189 58.8274 23.0109C59.1154 22.8029 59.3394 22.5629 59.4994 22.2909C59.6594 22.0189 59.7394 21.7229 59.7394 21.4029V19.3629H57.1954C56.0914 19.3629 55.2834 19.5229 54.7714 19.8429C54.2754 20.1629 54.0274 20.6269 54.0274 21.2349V21.7389C54.0274 22.3469 54.2434 22.8189 54.6754 23.1549C55.1234 23.4909 55.7234 23.6589 56.4754 23.6589ZM73.7837 22.9869H73.6877C72.9357 24.5229 71.7277 25.2909 70.0637 25.2909C69.2957 25.2909 68.5997 25.1389 67.9757 24.8349C67.3517 24.5309 66.8157 24.0989 66.3677 23.5389C65.9357 22.9789 65.5997 22.2989 65.3597 21.4989C65.1357 20.6989 65.0237 19.8029 65.0237 18.8109C65.0237 17.8189 65.1357 16.9229 65.3597 16.1229C65.5997 15.3229 65.9357 14.6429 66.3677 14.0829C66.8157 13.5229 67.3517 13.0909 67.9757 12.7869C68.5997 12.4829 69.2957 12.3309 70.0637 12.3309C70.9277 12.3309 71.6637 12.5229 72.2717 12.9069C72.8957 13.2749 73.3677 13.8509 73.6877 14.6349H73.7837V7.24293H75.7037V25.0029H73.7837V22.9869ZM70.5917 23.5629C71.0237 23.5629 71.4317 23.5069 71.8157 23.3949C72.2157 23.2829 72.5597 23.1229 72.8477 22.9149C73.1357 22.6909 73.3597 22.4269 73.5197 22.1229C73.6957 21.8029 73.7837 21.4429 73.7837 21.0429V16.4349C73.7837 16.0989 73.6957 15.7869 73.5197 15.4989C73.3597 15.1949 73.1357 14.9389 72.8477 14.7309C72.5597 14.5229 72.2157 14.3629 71.8157 14.2509C71.4317 14.1229 71.0237 14.0589 70.5917 14.0589C69.5037 14.0589 68.6477 14.4029 68.0237 15.0909C67.3997 15.7629 67.0877 16.6509 67.0877 17.7549V19.8669C67.0877 20.9709 67.3997 21.8669 68.0237 22.5549C68.6477 23.2269 69.5037 23.5629 70.5917 23.5629ZM84.4896 25.2909C83.6416 25.2909 82.8736 25.1389 82.1856 24.8349C81.5136 24.5309 80.9296 24.0989 80.4336 23.5389C79.9536 22.9629 79.5776 22.2829 79.3056 21.4989C79.0496 20.6989 78.9216 19.8029 78.9216 18.8109C78.9216 17.8349 79.0496 16.9469 79.3056 16.1469C79.5776 15.3469 79.9536 14.6669 80.4336 14.1069C80.9296 13.5309 81.5136 13.0909 82.1856 12.7869C82.8736 12.4829 83.6416 12.3309 84.4896 12.3309C85.3216 12.3309 86.0656 12.4829 86.7216 12.7869C87.3776 13.0909 87.9376 13.5149 88.4016 14.0589C88.8656 14.5869 89.2176 15.2189 89.4576 15.9549C89.7136 16.6909 89.8416 17.4989 89.8416 18.3789V19.2909H80.9376V19.8669C80.9376 20.3949 81.0176 20.8909 81.1776 21.3549C81.3536 21.8029 81.5936 22.1949 81.8976 22.5309C82.2176 22.8669 82.6016 23.1309 83.0496 23.3229C83.5136 23.5149 84.0336 23.6109 84.6096 23.6109C85.3936 23.6109 86.0736 23.4269 86.6496 23.0589C87.2416 22.6909 87.6976 22.1629 88.0176 21.4749L89.3856 22.4589C88.9856 23.3069 88.3616 23.9949 87.5136 24.5229C86.6656 25.0349 85.6576 25.2909 84.4896 25.2909ZM84.4896 13.9389C83.9616 13.9389 83.4816 14.0349 83.0496 14.2269C82.6176 14.4029 82.2416 14.6589 81.9216 14.9949C81.6176 15.3309 81.3776 15.7309 81.2016 16.1949C81.0256 16.6429 80.9376 17.1389 80.9376 17.6829V17.8509H87.7776V17.5869C87.7776 16.4829 87.4736 15.6029 86.8656 14.9469C86.2736 14.2749 85.4816 13.9389 84.4896 13.9389ZM93.0534 25.0029V12.6189H94.9734V14.8989H95.0934C95.3174 14.3069 95.7174 13.7789 96.2934 13.3149C96.8694 12.8509 97.6614 12.6189 98.6694 12.6189H99.4134V14.5389H98.2854C97.2454 14.5389 96.4294 14.7389 95.8374 15.1389C95.2614 15.5229 94.9734 16.0109 94.9734 16.6029V25.0029H93.0534Z" fill="white"/>
</svg>
