<svg width="34" height="34" viewBox="0 0 34 34" fill="none" xmlns="http://www.w3.org/2000/svg">
<circle cx="17.8594" cy="16.8809" r="9.96875" fill="#EFEFEF"/>
<path d="M14.8235 26.4903C20.0101 27.9806 24.9015 24.4636 25.9995 22.7567C24.8399 23.2179 22.2238 23.5908 21.036 21.3929C19.8483 19.195 21.4559 17.1572 22.4082 16.4131L7.71875 17.6494C7.98212 20.2824 8.84164 24.7714 14.8235 26.4903Z" fill="url(#paint0_linear_1_255376)"/>
<path d="M20.4743 4.61139L20.4795 4.59997C20.6408 4.24248 20.7398 4.63489 20.7471 5.67277C20.7563 6.97011 19.4329 8.02973 17.9487 8.72268C15.3555 9.93344 14.5378 12.8023 15.8074 14.1324C18.4951 16.9484 20.7287 13.9633 23.5275 13.7943C25.5202 13.6739 27.2959 14.9332 28.0818 15.79C28.1691 15.8852 28.0777 16.0266 27.9508 16.0023C26.9142 15.8036 24.8826 15.625 23.1706 16.0859C20.7287 16.7433 19.6016 19.2466 19.1696 19.9366C18.8264 20.4848 16.0896 24.4071 11.544 22.9232C6.99833 21.4392 6.9039 15.4468 9.1779 11.8032C11.4973 8.08697 16.8934 6.66401 18.6169 6.1252C19.9845 5.69768 20.2656 5.07426 20.4743 4.61139Z" fill="url(#paint1_linear_1_255376)"/>
<defs>
<linearGradient id="paint0_linear_1_255376" x1="15.2962" y1="19.4697" x2="20.2273" y2="26.2247" gradientUnits="userSpaceOnUse">
<stop stop-color="#FAFAFA"/>
<stop offset="1" stop-color="#B5B5B5"/>
</linearGradient>
<linearGradient id="paint1_linear_1_255376" x1="10.6078" y1="9.81356" x2="19.2286" y2="20.0935" gradientUnits="userSpaceOnUse">
<stop stop-color="#F3F3F3"/>
<stop offset="1" stop-color="#ADACAC"/>
</linearGradient>
</defs>
</svg>
